<svg xmlns:xlink="http://www.w3.org/1999/xlink" xmlns="http://www.w3.org/2000/svg" version="1.1" width="40px" height="15px">
  <g transform="matrix(1 0 0 1 -596 -955 )">
    <path d="M 26.8037020377358 3.15698997631579  C 27.0967577358491 3.15698997631579  27.2893554716981 3.23362788157895  27.3808553962264 3.38690371578947  C 27.3994113207547 3.42539000526316  27.490911245283 3.58837108421053  27.6559950188679 3.87584692105263  C 27.9114201509434 4.32724756578947  28.168004754717 4.77792922105263  28.4257460377358 5.227887  L 26.9412718490566 5.227887  L 26.5560764528302 4.45113328421053  C 26.4460206037736 4.24029535263158  26.2809368301887 4.13487638684211  26.0611450566038 4.13487638684211  L 23.6143221132075 4.13487638684211  L 23.2844745660377 4.85373333157895  C 23.2108907169811 5.08398173684211  23.0461268679245 5.20847651842105  22.7895431698113 5.22755234210526  L 21.772166490566 5.22755234210526  L 22.4321815849057 3.61715213684211  C 22.560153509434 3.31026581052632  22.7617092830189 3.15698997631579  23.0368489056604 3.15698997631579  L 26.8037020377358 3.15698997631579  Z M 21.8822223396226 10.0594222894737  L 21.8822223396226 9.11031694736842  L 24.4666150188679 9.11031694736842  L 24.4666150188679 8.76527897368421  C 24.4666150188679 8.43931681578947  24.2925732830189 8.27633573684211  23.9441697358491 8.27633573684211  L 21.9922781886792 8.27633573684211  L 21.9922781886792 7.29844935789474  L 24.4666150188679 7.29844935789474  L 24.4666150188679 6.9246303631579  C 24.4666150188679 6.57925775526316  24.2925732830189 6.40690610526316  23.9441697358491 6.40690610526316  L 21.9647642264151 6.40690610526316  L 21.9647642264151 5.42901969473684  L 28.2056343396226 5.42901969473684  L 28.2056343396226 6.40690610526316  L 25.7588113962264 6.40690610526316  L 25.7588113962264 7.29844935789474  L 28.1784403018868 7.29844935789474  L 28.1784403018868 8.27633573684211  L 25.7588113962264 8.27633573684211  L 25.7588113962264 9.11031694736842  L 28.3156901886792 9.11031694736842  L 28.3156901886792 9.42657386842105  C 28.3156901886792 9.84824968421053  28.1141344150943 10.0590876315789  27.7110229433962 10.0590876315789  L 21.8819024150943 10.0590876315789  Z M 30.0477900377358 3.15698997631579  L 34.1995187169811 3.15698997631579  C 34.8041859622641 3.15698997631579  35.1157975849057 3.45417105789474  35.134353509434 4.04853322894737  L 35.134353509434 5.77405764473684  L 32.6872106415094 5.77405764473684  L 32.6872106415094 6.03308711052632  L 35.4091732075472 6.03308711052632  L 35.4091732075472 6.78072511578947  L 28.810941509434 6.78072511578947  L 28.810941509434 6.03308711052632  L 31.5604179622642 6.03308711052632  C 31.5604179622642 5.86040080263158  31.3953341886792 5.77405764473684  31.0654866415094 5.77405764473684  L 29.1404691320755 5.77405764473684  L 29.1404691320755 4.04853322894737  C 29.1404691320755 3.45417105789474  29.4431227169811 3.15698997631579  30.0477900377358 3.15698997631579  Z M 29.9380541132075 7.01063886315789  L 34.4746583396226 7.01063886315789  C 34.9692697358491 7.01063886315789  35.2168953962264 7.24088726052632  35.2168953962264 7.70104941315789  L 35.2168953962264 8.67893581578947  L 32.8247804528302 8.67893581578947  L 32.8247804528302 10.0594222894737  L 31.6426399245283 10.0594222894737  L 31.6426399245283 9.139098  C 31.6426399245283 8.83221165789474  31.4500421886792 8.67893581578947  31.0651667169811 8.67893581578947  L 29.1404691320755 8.67893581578947  L 29.1404691320755 7.70104941315789  C 29.1404691320755 7.24088726052632  29.4063307924528 7.01063886315789  29.9380541132075 7.01063886315789  Z M 33.5119896603774 7.67226836842105  L 30.1853598490566 7.67226836842105  L 30.1853598490566 8.04608739473684  L 34.0069209811321 8.04608739473684  L 34.0069209811321 7.9597442368421  C 34.0069209811321 7.76831675526316  33.8421571320755 7.67226836842105  33.5119896603774 7.67226836842105  Z M 34.0894628679245 10.0306412368421  L 33.5945315471698 8.90884957894737  L 34.5293663396226 8.90884957894737  C 34.7309221132075 8.92826005263158  34.8777698867924 9.01426855263158  34.9692697358491 9.16787905263158  L 35.3266313207547 10.0306412368421  L 34.0894628679245 10.0306412368421  Z M 29.4706366792453 8.90884957894737  L 30.6527772075472 8.90884957894737  L 30.2954156226415 10.0018601842105  L 29.0582471698113 10.0018601842105  L 29.4706366792453 8.90884957894737  Z M 33.4844756981132 4.73894379473684  L 30.2679016603774 4.73894379473684  L 30.2679016603774 5.0552007  L 34.0069209811321 5.0552007  L 34.0069209811321 4.96885754210526  C 34.0069209811321 4.79617123421053  33.8328791698113 4.71953332894737  33.4844756981132 4.7386091368421  Z M 25.4347225660377 13.1500386315789  L 25.435042490566 13  L 3.91656570566038 13  C 2.16910926037736 13.1497039736842  0.753100073441509 11.6594478947368  0.753100073441509 9.82314994736842  L 0.753100073441509 9.4617135  C 0.753100073441509 7.62508083157895  2.1694292 6.13482476842105  3.91688564528302 6.13482476842105  C 4.13775106415094 6.13482476842105  4.31679785660377 6.32211716052632  4.31679785660377 6.55315400526316  C 4.31679785660377 6.78419085789474  4.13775106415094 6.97148323421053  3.91688564528302 6.97148324210526  C 2.61221202264151 6.97148324210526  1.55292452830189 8.08591231578948  1.55292452830189 9.46137884210526  L 1.55292452830189 9.82314994736842  C 1.55292452830189 11.1986164736842  2.61189208301887 12.3130455  3.91688564528302 12.3130455  L 25.4347225660377 12.3130455  L 25.4347225660377 11.0155556052632  L 28.7162422641509 12.7317093947368  L 25.4347225660377 14.4481979210526  L 25.4347225660377 13.1500386315789  Z M 30.2679016603774 4.1924385  L 34.0069209811321 4.1924385  L 34.0069209811321 4.07731428947368  C 34.0069209811321 3.92403845526316  33.8328791698113 3.84706588421053  33.4844756981132 3.84706588421053  L 30.2679016603774 3.84706588421053  L 30.2679016603774 4.1924385  Z M 9.1717322264151 7.39315910526316  L 9.1717322264151 8.55444102631579  C 9.15157667924528 9.18160026315789  8.80157343396226 9.50588905263158  8.12172270188679 9.52663815789474  L 5.27242810566038 9.52663815789474  L 5.27242810566038 8.460066  L 7.97167562264151 8.460066  L 7.97167562264151 7.51832320263158  C 7.91184876226415 7.12107776052632  7.64214796226415 6.90153858947369  7.16225329056604 6.85970566578947  L 5.87197651320755 6.85970566578947  L 5.87197651320755 5.73021674210526  L 7.97135569811321 5.73021674210526  L 7.97135569811321 4.85172535263158  C 7.91152883773585 4.43339611578947  7.63159027924528 4.20314771052632  7.13154003773585 4.16131480263158  L 5.27210818113208 4.16131480263158  L 5.27210818113208 3.03216053684211  L 8.00142909433962 3.03216053684211  C 8.76126233962264 3.05324433157895  9.15125667924528 3.42974063684211  9.17109237735849 4.16164946052632  L 9.17109237735849 5.25968002894737  C 9.17109237735849 5.71984218157895  8.94138279245283 6.07558936578947  8.48132377358491 6.32658689210526  C 8.92122716981132 6.51466770789474  9.15125667924528 6.8704149  9.17109237735849 7.39315910526316  Z M 14.1024899622642 6.79745827105263  L 14.1024899622642 8.36602555263158  C 14.0624987169811 9.09793436842105  13.6424309433962 9.48480528947368  12.842606490566 9.52663815789474  L 11.043001509434 9.52663815789474  C 10.3033238490566 9.50588905263158  9.92324724528302 9.11901821052632  9.90341162264151 8.36602555263158  L 9.90341162264151 4.50635274473684  C 9.90341162264151 3.52344637894737  10.3733884528302 3.03182587894737  11.3130221886792 3.03182587894737  L 13.8625426415094 3.03182587894737  L 13.8625426415094 4.16131480263158  L 11.1028283773585 4.16131480263158  L 11.1028283773585 5.51034289736842  L 12.8723599245283 5.51034289736842  C 13.6721843773585 5.53142669210526  14.0820144150943 5.96013048157895  14.1021700377358 6.79678895526316  Z M 12.9027532830189 8.460066  L 12.9027532830189 7.33057704473684  C 12.8627620377358 6.91224780789474  12.5927413584906 6.68199940263158  12.0930110188679 6.64016649473684  L 11.1028283773585 6.64016649473684  L 11.1028283773585 8.460066  L 12.9024333584906 8.460066  Z M 18.8233737358491 4.50635274473684  L 18.8233737358491 8.02031826315789  C 18.8035381132075 9.00355926315789  18.3134056603774 9.50555439473684  17.3536163018868 9.5263035  L 16.1538796981132 9.5263035  C 15.2142458867925 9.48447055263158  14.7244334339623 9.01426855263158  14.6844421886792 8.11469336842105  L 14.6844421886792 4.56960412105263  C 14.7244334339623 3.58636310526316  15.2241636981132 3.07399345263158  16.1839530566038 3.03216053684211  L 17.3536163018868 3.03216053684211  C 18.2734144150943 3.09507725526316  18.7635468679245 3.58636310526316  18.8233737358491 4.50668741842105  Z M 17.6236370566038 7.8948195  L 17.6236370566038 4.69476823421053  C 17.6038014339623 4.36010485263158  17.4236809811321 4.18239859736842  17.0839155471698 4.16131480263158  L 16.3938270188679 4.16131480263158  C 16.0738972075472 4.18239859736842  15.9043344150943 4.36010485263158  15.8841788679245 4.69476823421053  L 15.8841788679245 7.92627789473684  C 15.904014490566 8.2609412368421  16.0738972075472 8.4386475  16.3938270188679 8.45973134210526  L 17.0538421132075 8.45973134210526  C 17.4137630943396 8.4386475  17.6038014339623 8.25056668421053  17.6236370566038 7.8948195  Z M 19.8567468679245 3.19547627368421  C 19.0921991698113 3.19547627368421  18.4724107169811 2.54714497894737  18.4724107169811 1.74738780789474  C 18.4724107169811 0.947630628947369  19.0921991698113 0.299299335789474  19.8567468679245 0.299299335789474  C 20.6212946415094 0.299299335789474  21.2410830188679 0.947630628947369  21.2410830188679 1.74738780789474  C 21.2410830188679 2.54714497894737  20.6212946415094 3.19547627368421  19.8567468679245 3.19547627368421  Z M 19.8567468679245 2.3588178  C 20.0655728301887 2.3588178  20.2585359245283 2.24227990263158  20.3629489056604 2.0531028  C 20.4673618867925 1.86392569736842  20.4673618867925 1.63084989473684  20.3629489056604 1.44167279210526  C 20.2585359245283 1.25249568947368  20.0655728301887 1.13595779210526  19.8567468679245 1.13595779210526  C 19.5339300377358 1.13595779210526  19.272235245283 1.40970433421053  19.272235245283 1.7473878  C 19.272235245283 2.08507125789474  19.5339300377358 2.3588178  19.8567468679245 2.3588178  Z M 36.8034271698113 13.1497039736842  L 31.9974420377358 13.1497039736842  C 31.7766068679245 13.1497039736842  31.5976073207547 12.9623799473684  31.5976073207547 12.7313747368421  C 31.5976073207547 12.5003695263158  31.7766068679245 12.3130902631579  31.9974420377358 12.3130455  L 36.8034271698113 12.3130455  C 38.0949836981132 12.3130455  39.1446732830189 11.1992857894737  39.1446732830189 9.82314994736842  L 39.1446732830189 9.4617135  C 39.1446732830189 8.085243  38.0946637735849 6.97148324210526  36.8034271698113 6.97148324210526  C 36.6605523018868 6.97148325  36.5285304150943 6.89175015  36.4570929811321 6.76231863157895  C 36.3856555471698 6.63288711315789  36.3856555471698 6.47342090526316  36.4570929811321 6.3439893868421  C 36.5285304150943 6.21455786842105  36.6605523018868 6.13482476842105  36.8034271698113 6.13482476842105  C 38.5390461886793 6.13482476842105  39.9444977358491 7.62575014736842  39.9444977358491 9.46137884210526  L 39.9444977358491 9.82314994736842  C 39.9444977358491 11.6587785789474  38.5393661132075 13.1497039736842  36.8034271698113 13.1497039736842  Z " fill-rule="nonzero" fill="#ffffff" stroke="none" transform="matrix(1 0 0 1 596 955 )"/>
  </g>
</svg>